<svg xmlns="http://www.w3.org/2000/svg" viewBox="0 0 128 128"><path fill="#2396ED" d="M124.8 52.1c-4.3-18.2-21.8-29.4-39-27.8-4.1-6.8-12.2-11.2-21.2-11.2-6.1 0-11.6 2.1-15.8 5.6C45 12.3 37.2 8 28.3 8c-14 0-25.4 11.5-25.4 25.7 0 2.3.3 4.5.8 6.6C1.5 43.4 0 47.5 0 52c0 10 7.2 18.4 16.9 20.1C19 78.4 24.8 82.8 32 82.8c3.6 0 6.9-1 9.7-2.8 4 7.8 12 13.2 21.3 13.2 10.4 0 19.2-6.6 22.5-15.9 1.2.2 2.4.3 3.7.3C103.5 77.6 115 66.2 115 52c0-.7 0-1.4-.1-2.1 5.8-2.3 10-8 9.9-14.8v17z"/><path fill="#fff" d="M49 65.2V40h8.5L64 49.6 70.5 40H79v25.2h-7V50.4l-8 10-8-10v14.8h-7zm-26.8 0L11 52.4h8V40h8v12.4h8L24.2 65.2z"/></svg>
