<svg xmlns="http://www.w3.org/2000/svg" viewBox="0 0 128 128"><path fill="currentColor" d="M126.67 98.44c-4.56 1.16-7.38.05-9.91-3.75-5.68-8.51-11.95-16.63-18-24.9-.78-1.07-1.59-2.12-2.6-3.45C89.33 76.31 82.67 86.34 76.32 96.7c-2.39 3.89-5.08 5.09-9.53 3.72l24.54-34.8-23.29-31.36c4.39-.87 7.2-.27 9.65 3.6 5.78 9.07 12.08 17.82 18.48 27.19 6.5-9.27 12.71-18.12 18.49-27.28 2.43-3.84 5.12-4.81 9.62-3.42-3.95 5.32-7.81 10.61-11.76 15.83-3.69 4.87-7.52 9.63-11.09 14.59-.77 1.07-.73 1.83.02 2.88 7.89 11.09 15.7 22.24 23.7 33.59zM1.33 61.74c.72-3.61 1.2-7.29 2.2-10.83 6-21.43 30.6-30.34 47.5-17.06C60.93 41.64 63.39 52.3 62.54 65H8.89c-1.38 22.35 14.3 36.72 33.6 31.62 7.84-2.07 12.35-7.43 14.98-14.89 1.18-3.35 3.18-3.65 6.18-2.42-1.83 6.3-4.58 12.01-9.68 16.25-8.73 7.25-18.42 8.61-28.72 5-10.67-3.74-16.41-11.89-18.79-22.76-.38-1.72-.67-3.46-1-5.2l-4.13.14zm7.7-1.34h46.17c-.29-14.94-9.86-25.29-23.14-25.24-14.12.05-23.29 10.14-23.03 25.24z"/></svg>
