<svg xmlns="http://www.w3.org/2000/svg" viewBox="0 0 128 128"><path fill="#F05033" d="M124.7 58.4L69.6 3.3c-3.1-3.1-8.2-3.1-11.3 0L46 15.6 59.4 29c3.5-1.2 7.5-.4 10.3 2.3 2.8 2.8 3.5 6.9 2.2 10.3l12.9 12.9c3.5-1.3 7.5-.6 10.3 2.2 3.9 3.9 3.9 10.2 0 14.1-3.9 3.9-10.2 3.9-14.1 0-3-3-3.7-7.4-2.1-11.1L66.3 47.1l-.1 34.2c1 .5 1.9 1.1 2.7 1.9 3.9 3.9 3.9 10.2 0 14.1-3.9 3.9-10.2 3.9-14.1 0-3.9-3.9-3.9-10.2 0-14.1 1-1 2.2-1.8 3.5-2.3V46.5c-1.3-.5-2.5-1.2-3.5-2.3-3-3-3.7-7.5-2-11.1L40 20.4 3.3 57.1c-3.1 3.1-3.1 8.2 0 11.3l55.1 55.1c3.1 3.1 8.2 3.1 11.3 0l55-55c3.1-3.1 3.1-8.1 0-11.1z"/></svg>
