<svg xmlns="http://www.w3.org/2000/svg" viewBox="0 0 128 128"><path fill="#EA2D2E" d="M47.6 22S37.6 32.7 47.6 43.5c0 0-3.4-7.2 4.4-13.5 9-7 7.4-14 2.4-19.4l.2-.3s8.2 3.7 4.4 14.8c-3.2 8.9 8 17 8 17s-5.4-13 8-21.8C84.6 13.8 73 3.5 73 3.5s2.6 8.6-5.4 15.8C60.2 25.5 51 27.5 47.6 22z"/><path fill="#0074BD" d="M19 90.4s-4.8 2.8 3.4 3.7c10 1.1 15 .9 25.9-.9 0 0 2.9 1.8 6.9 3.4C31.8 106 9.4 96.2 19 90.4zm-3-13.8s-5.3 4 3 4.8c10.8 1.1 19 1.2 33.5-1.6 0 0 2 2.1 5.2 3.2C30 93 6.5 84.2 16 76.6z"/><path fill="#EA2D2E" d="M51.6 56.8c6.1 7 -1.6 13.3-1.6 13.3s15.5-8 8.4-18c-6.6-9.3-11.7-14 15.8-29.9 0 0-43.1 10.8-22.6 34.6z"/><path fill="#0074BD" d="M76.5 98.9s3.5 2.9-3.9 5.2c-14 4.2-58.3 5.5-70.6.2-4.4-1.9 3.9-4.6 6.6-5.1 2.8-.6 4.3-.5 4.3-.5-5-3.5-32.3 6.9-13.9 9.9 50.3 8 91.7-3.6 77.5-9.7zM21.2 66s-22.9 5.4-8.1 7.4c6.3.8 18.8.6 30.5-.3 9.6-.8 19.2-2.4 19.2-2.4s-3.4 1.4-5.8 3.1c-23.5 6.2-68.9 3.3-55.8-3 11-5.3 20-4.8 20-4.8zm41.6 23.3c23.9-12.4 12.8-24.4 5.1-22.8-1.9.4-2.7.7-2.7.7s.7-1.1 2.1-1.6c15.4-5.4 27.2 16-4.9 24.5 0 0 .3-.3.4-.8zM28.7 0s13.2 13.2-12.5 33.5c-20.6 16.2-4.7 25.5 0 36.1-12-10.8-20.8-20.3-14.9-29.2C9.9 27 34 20.2 28.7 0z"/><path fill="#0074BD" d="M54.8 123.3c22.9 1.5 58.1-.8 58.9-11.7 0 0-1.6 4.1-18.9 7.3-19.6 3.7-43.7 3.2-58 .9 0 0 2.9 2.4 18 3.5z"/></svg>
