<svg xmlns="http://www.w3.org/2000/svg" viewBox="0 0 128 128"><path fill="#F7DF1E" d="M2 2h124v124H2z"/><path d="M89.519 108.268c3.458 5.643 7.953 9.787 15.9 9.787 6.68 0 10.947-3.34 10.947-7.953 0-5.527-4.382-7.488-11.729-10.707l-4.028-1.729c-11.616-4.947-19.335-11.146-19.335-24.248 0-12.07 9.2-21.26 23.577-21.26 10.24 0 17.6 3.564 22.9 12.893l-12.536 8.04c-2.76-4.947-5.736-6.893-10.364-6.893-4.713 0-7.707 2.993-7.707 6.893 0 4.827 2.994 6.773 9.894 9.76l4.027 1.729c13.685 5.868 21.4 11.862 21.4 25.318 0 14.51-11.397 22.468-26.698 22.468-14.953 0-24.615-7.124-29.34-16.46l13.092-7.638zm-50.906 2.248c2.527 4.48 4.827 8.267 10.364 8.267 5.293 0 8.627-2.074 8.627-10.14V56.588h16.147v52.283c0 16.707-9.787 24.312-24.073 24.312-12.9 0-20.364-6.68-24.158-14.727l13.093-7.94z" fill="#000"/></svg>
