<svg xmlns="http://www.w3.org/2000/svg" viewBox="0 0 128 128"><path fill="#FF2D20" d="M27.271 30.72c.384 0 .769.098 1.106.295l39.893 22.288c.691.386 1.116 1.117 1.116 1.918v45.109c0 .801-.425 1.532-1.116 1.918L28.377 124.536c-.339.199-.721.298-1.106.298s-.769-.098-1.106-.298L-13.728 102.25c-.691-.386-1.116-1.117-1.116-1.918V55.221c0-.801.425-1.532 1.116-1.918L26.165 31.015c.337-.197.721-.295 1.106-.295m0-4c-1.022 0-2.044.264-2.959.791L-15.581 49.8c-1.827 1.021-2.959 2.941-2.959 5.042v45.109c0 2.101 1.132 4.021 2.959 5.042l39.893 22.288a5.926 5.926 0 002.959.791c1.022 0 2.044-.264 2.959-.791l39.893-22.288c1.827-1.021 2.959-2.941 2.959-5.042V55.221c0-2.101-1.132-4.021-2.959-5.042L30.23 27.891a5.926 5.926 0 00-2.959-.791z" transform="translate(36.728 .272)"/><path fill="#FF2D20" d="M99.602 46.088c-.384 0-.769-.098-1.106-.295L58.603 23.505a2.226 2.226 0 01-1.116-1.918c0-.801.425-1.532 1.116-1.918l39.893-22.288a2.226 2.226 0 012.212 0l39.893 22.288c.691.386 1.116 1.117 1.116 1.918 0 .801-.425 1.532-1.116 1.918l-39.893 22.288c-.339.197-.723.295-1.106.295zm-34.47-24.501l34.47 19.256 34.47-19.256-34.47-19.256-34.47 19.256z"/></svg>
