<svg xmlns="http://www.w3.org/2000/svg" viewBox="0 0 128 128"><path fill="#E0234E" d="M75.63 1.04c-2.03 0-3.82.96-4.96 2.43.89.55 1.68 1.22 2.33 2 .65.79 1.17 1.67 1.54 2.62.1.24.17.47.24.72.15-.02.3-.04.46-.06a7.04 7.04 0 014.9 1.15c.1-.88.23-1.74.49-2.57.25-.83.63-1.63 1.17-2.35a6.573 6.573 0 00-6.17-3.94zm11.35 3.97c-.16.01-.32.04-.47.07a5.67 5.67 0 00-1.87.77 5.394 5.394 0 00-1.92 2.43c-.25.63-.4 1.3-.48 1.98a8.557 8.557 0 00-.05 1.69c.03.26.06.51.12.77a7.09 7.09 0 013.61-1.22c.18-.02.35-.01.53-.01.17 0 .35 0 .52.02.17.01.34.04.51.07.17.03.34.07.5.12a7.058 7.058 0 014.44 3.65c.19-.43.33-.89.42-1.36.1-.47.14-.95.14-1.43 0-.49-.04-.97-.14-1.44a5.67 5.67 0 00-5.86-5.09zm-18.33.03c-.17.01-.34.04-.51.07a5.682 5.682 0 00-3.46 2.41c-.4.6-.67 1.27-.81 1.97a5.67 5.67 0 00.05 2.38c.52-.49 1.1-.88 1.73-1.19a7.11 7.11 0 014.33-.84c.28.02.55.07.82.13-.01-.13-.01-.27-.03-.4a7.026 7.026 0 00-2.12-4.53zm6.72 3.7a5.933 5.933 0 00-3.41 1.14c-.49.37-.91.82-1.24 1.33-.34.51-.59 1.07-.73 1.66-.15.59-.19 1.2-.13 1.8.04.45.13.9.28 1.33.33-.13.66-.24 1.01-.32a7.1 7.1 0 016.46 1.64c.24-.6.39-1.23.44-1.87a5.919 5.919 0 00-2.68-5.71zm20.12.72a5.933 5.933 0 00-4.6 3.32c-.24.55-.38 1.14-.42 1.73a5.86 5.86 0 001.39 4.23c.35-.58.78-1.08 1.27-1.52a7.093 7.093 0 014.73-1.94c.22-.01.44-.01.66 0-.01-.24-.04-.48-.08-.72a5.954 5.954 0 00-2.95-5.1zm-12.83 2.67c-.5.02-.99.1-1.46.26a5.15 5.15 0 00-1.33.7c-.41.3-.76.66-1.05 1.06-.29.41-.52.85-.68 1.32a5.14 5.14 0 00-.04 3.27c.77-.34 1.59-.55 2.43-.63a7.11 7.11 0 015.22 1.41 5.116 5.116 0 00-1.01-4.97 5.122 5.122 0 00-2.08-2.42zm20.34 3.94c-.07 0-.14 0-.21.01a5.93 5.93 0 00-4.1 2.14c-.5.59-.87 1.27-1.1 2.01-.23.74-.31 1.52-.22 2.29a6.012 6.012 0 001.37 3.35c.08-.34.19-.66.33-.98a7.02 7.02 0 013.74-3.71c.44-.2.91-.36 1.38-.46-.16-.69-.44-1.35-.82-1.95a5.88 5.88 0 00-3.36-2.44c-.33-.09-.67-.15-1.01-.17v-.09zm-25.93 1.22c-.91.03-1.79.21-2.6.56-.81.34-1.54.84-2.14 1.47-.6.62-1.07 1.37-1.37 2.18-.3.81-.44 1.68-.39 2.54.04.63.16 1.24.37 1.83.21.59.5 1.14.87 1.63.73-.84 1.6-1.5 2.56-1.98.96-.48 2-.78 3.08-.9.42-.04.84-.05 1.26-.02.42.03.84.1 1.24.2l.14.04c-.02-.18-.05-.37-.09-.55-.23-.98-.65-1.9-1.24-2.71a7.049 7.049 0 00-1.69-1.29zm34.27 3.63a6.68 6.68 0 00-5.34 2.61c-.61.76-1.05 1.64-1.28 2.58a6.72 6.72 0 001.11 5.49c-.02-.64.05-1.28.2-1.9a7.1 7.1 0 014.73-5c.12-.05.25-.09.37-.12-.06-.43-.15-.86-.28-1.27a6.619 6.619 0 00-1.14-2.11c-.47-.55-1.02-1.02-1.63-1.38l.26.1zm-42.55 1.16c-.84.02-1.66.18-2.43.47-.77.3-1.48.73-2.09 1.28a6.686 6.686 0 00-2.06 4.21c-.07.57-.06 1.15.02 1.72.09.57.25 1.12.48 1.64a6.625 6.625 0 003.99-1.18 6.69 6.69 0 002.7-4.18c.08-.39.13-.79.15-1.19.02-.4.01-.8-.04-1.19-.03-.26-.08-.51-.14-.76-.19-.26-.38-.53-.58-.82zm37.36 2.33c-.52.02-1.04.09-1.55.21a6.686 6.686 0 00-4.18 3.38c-.4.78-.63 1.63-.68 2.5-.06.87.07 1.75.37 2.58 1.08-1.06 2.38-1.86 3.79-2.34 1.41-.48 2.92-.64 4.41-.46-.12-.74-.36-1.45-.72-2.1a6.68 6.68 0 00-4.61-3.49c.39.55.69 1.16.88 1.8-.3-.12-.62-.21-.94-.28-.33-.06-.66-.1-.99-.11.08.12.15.25.22.38zm-30.82.62c-.66.03-1.31.15-1.93.35a6.14 6.14 0 00-3.39 2.68c-.38.67-.63 1.41-.72 2.17a6.12 6.12 0 001.73 4.78c-.14-.81-.1-1.65.1-2.46a6.14 6.14 0 013.34-3.85c.42-.22.87-.39 1.33-.51.46-.12.93-.19 1.41-.2-.33-.59-.74-1.12-1.22-1.59-.49-.47-1.04-.87-1.64-1.18.33-.06.66-.12 1-.19zm25.71 3.14c-1.28.04-2.53.34-3.66.9-1.13.56-2.13 1.36-2.9 2.35a8.12 8.12 0 00-1.52 6.08c.18 1.09.55 2.13 1.09 3.09a12.55 12.55 0 00-4.3-1.86 12.583 12.583 0 00-7.44.41c-.6.22-1.17.49-1.71.8a12.53 12.53 0 00-4.69 4.69c-.44.75-.79 1.55-1.05 2.39-.26.84-.42 1.71-.47 2.58H41.53c-.39 0-.77.03-1.14.09a5.97 5.97 0 00-4.44 3.3c-.24.55-.39 1.15-.44 1.76l-.03.12c-.02.1-.03.2-.03.31v.23c0 .08 0 .17.01.26.02.52.12 1.04.28 1.53-.26-.1-.52-.19-.79-.27a8.874 8.874 0 00-5.69.23 8.77 8.77 0 00-3.03 1.93c-1.36 1.36-2.18 3.13-2.45 4.99a9.074 9.074 0 00.91 5.53c-.39-.18-.79-.33-1.2-.45a7.93 7.93 0 00-5.18.2 7.88 7.88 0 00-4.14 3.7 7.912 7.912 0 00-.82 4.47 7.9 7.9 0 005.21 6.69 7.846 7.846 0 003.9.49l.69-.08c-.3.44-.54.92-.73 1.42a7.59 7.59 0 003.62 9.43 7.579 7.579 0 005.04.82c.61-.09 1.2-.26 1.77-.49-.05.16-.08.33-.11.5a7.578 7.578 0 001.22 5.03 7.6 7.6 0 008.33 3.15 7.52 7.52 0 002.71-1.44c-.03.47.01.95.1 1.42.17.92.52 1.8 1.03 2.58a7.59 7.59 0 006.51 3.65c1.51 0 3-.44 4.27-1.29a7.51 7.51 0 002.24-2.54c.18.28.37.55.59.81.8.96 1.82 1.73 2.96 2.24a7.572 7.572 0 005.78.14 7.59 7.59 0 004.53-4.14c.27-.65.43-1.33.5-2.03.48.43 1.01.8 1.58 1.1.94.49 1.98.78 3.04.87a7.59 7.59 0 007.19-4.38c.28-.65.45-1.34.52-2.04.15.08.3.16.46.23a7.58 7.58 0 005.83-.06 7.58 7.58 0 004.28-4.67c.16-.55.25-1.11.28-1.68l.03-.26-.01-.22c-.01-.17-.02-.35-.05-.52a7.77 7.77 0 00-.27-1.15c.37.14.75.24 1.14.32a7.65 7.65 0 005.19-.58 7.63 7.63 0 004.14-6.58c0-.86-.15-1.72-.44-2.53a7.61 7.61 0 00-3.03-3.78c.3.01.6 0 .9-.03a7.35 7.35 0 005.25-2.62 7.372 7.372 0 001.5-5.69 7.4 7.4 0 00-3.35-5.27c-.52-.34-1.08-.61-1.67-.8a7.41 7.41 0 001.42-1.41 7.36 7.36 0 001.31-5.59 7.32 7.32 0 00-3.01-4.9 7.283 7.283 0 00-4.39-1.39 7.35 7.35 0 00-1.24.11c.14-.32.26-.65.35-1a8.103 8.103 0 00-.84-6.17 8.081 8.081 0 00-5-3.65 8.034 8.034 0 00-3.57-.13c.14-.55.22-1.11.24-1.67a8.077 8.077 0 00-2.06-5.72 8.098 8.098 0 00-6.56-2.74z"/></svg>
