<svg xmlns="http://www.w3.org/2000/svg" viewBox="0 0 128 128"><path fill="#6181B6" d="M64 33.039C30.26 33.039 2.906 46.901 2.906 64S30.26 94.961 64 94.961 125.094 81.099 125.094 64 97.74 33.039 64 33.039zM48.103 70.032c-1.458 1.364-3.077 1.927-4.86 2.507-1.783.581-4.052.461-6.811.461h-6.253l-1.733 10h-7.301l6.515-34H41.7c4.224 0 7.305 1.215 9.242 3.432 1.937 2.217 2.519 5.364 1.747 9.337-.319 1.637-.856 3.159-1.614 4.515a15.118 15.118 0 01-2.972 3.748zM69.414 73l2.881-14.42c.328-1.688.132-2.913-.586-3.676-.719-.764-2.016-1.145-3.894-1.145h-7.823L55.88 73h-7.27l6.515-34h7.27l-1.716 8.225h8.101c3.911 0 6.627 1.07 8.148 2.828 1.521 1.757 1.996 4.42 1.428 7.988L75.205 73h-5.791zm26.283-11.618c-.319 1.637-.856 3.133-1.614 4.489a15.16 15.16 0 01-2.958 3.722c-1.457 1.364-3.077 1.927-4.86 2.507-1.782.581-4.051.461-6.811.461h-6.253L71.468 73h-7.27l6.514-34h14.04c4.224 0 7.305 1.215 9.241 3.432 1.935 2.217 2.518 5.418 1.704 9.95z"/><path fill="#fff" d="M38.94 49.76h-5.252l-2.775 13.27h5.253c2.478 0 4.381-.635 5.709-1.905 1.328-1.271 2.291-3.239 2.888-5.907.578-2.571.345-4.158-.698-5.078-1.042-.919-2.723-1.38-5.125-1.38zm53.09 0h-5.252l-2.775 13.27h5.253c2.478 0 4.381-.635 5.709-1.905 1.327-1.271 2.291-3.239 2.888-5.907.578-2.571.344-4.158-.699-5.078-1.042-.919-2.722-1.38-5.124-1.38z"/></svg>
