<svg xmlns="http://www.w3.org/2000/svg" viewBox="0 0 128 128"><path fill="#336791" d="M93.8 27.2C88 22.4 80 19.8 70.6 19.8c-3 0-6.2.3-9.4 1-5.5-3.5-11.5-5.3-17.5-5.3-6.8 0-12.6 2.2-16.8 6.4-4.5 4.4-7 10.9-7.5 19.2-.4 6.7.4 14.4 2.3 22.5 2.1 8.9 5.3 16.8 9.2 23 5 8 10.6 12.1 16.5 12.1 2.4 0 4.6-.8 6.6-2.2 2.4 1.6 5.2 2.4 8.2 2.4 5.4 0 10.5-2.5 14.8-7.2 4.1 2.6 8.8 4 13.7 4 6.2 0 11.6-2.4 15.6-7 4.2-4.8 6.4-11.6 6.4-19.6 0-15.3-6-30.3-19.7-41.9zM64 91.2c-15 0-27.2-12.2-27.2-27.2S49 36.8 64 36.8 91.2 49 91.2 64 79 91.2 64 91.2z"/><ellipse cx="64" cy="64" rx="18" ry="6" fill="#336791" transform="rotate(-30 64 64)"/><ellipse cx="64" cy="64" rx="6" ry="18" fill="#336791" transform="rotate(-30 64 64)"/></svg>
