<svg xmlns="http://www.w3.org/2000/svg" viewBox="0 0 128 128"><path fill="#FF6600" d="M120.1 59.5c-3.4 0-6.2 2.8-6.2 6.2 0 1.2.4 2.4 1 3.4l-9.9 9.9c-1-.7-2.2-1.1-3.5-1.1-1.5 0-2.8.5-3.9 1.4l-12-8.4c.3-.7.4-1.5.4-2.3 0-3.4-2.8-6.2-6.2-6.2s-6.2 2.8-6.2 6.2c0 .5.1 1 .2 1.5L61.2 79c-1.1-.8-2.5-1.3-3.9-1.3-1.3 0-2.5.4-3.5 1l-8.4-7.2c.5-1 .7-2.1.7-3.3 0-3.4-2.8-6.2-6.2-6.2s-6.2 2.8-6.2 6.2c0 1.4.5 2.7 1.3 3.8L27 81.5c-.9-.4-1.8-.7-2.9-.7-3.4 0-6.2 2.8-6.2 6.2s2.8 6.2 6.2 6.2 6.2-2.8 6.2-6.2c0-1.4-.5-2.7-1.3-3.8l7.9-9.5c.9.4 1.8.7 2.9.7 1.3 0 2.5-.4 3.5-1l8.4 7.2c-.5 1-.7 2.1-.7 3.3 0 3.4 2.8 6.2 6.2 6.2s6.2-2.8 6.2-6.2c0-.5-.1-1-.2-1.5l12.6-8.9c1.1.8 2.5 1.3 3.9 1.3 1.5 0 2.8-.5 3.9-1.4l12 8.4c-.3.7-.4 1.5-.4 2.3 0 3.4 2.8 6.2 6.2 6.2s6.2-2.8 6.2-6.2c0-1.2-.4-2.4-1-3.4l9.9-9.9c1 .7 2.2 1.1 3.5 1.1 3.4 0 6.2-2.8 6.2-6.2s-2.8-6.2-6.2-6.2zM24.1 90.5c-1.9 0-3.5-1.6-3.5-3.5s1.6-3.5 3.5-3.5 3.5 1.6 3.5 3.5-1.6 3.5-3.5 3.5zm15.8-19c-1.9 0-3.5-1.6-3.5-3.5s1.6-3.5 3.5-3.5 3.5 1.6 3.5 3.5-1.6 3.5-3.5 3.5zm17.4 16.4c-1.9 0-3.5-1.6-3.5-3.5s1.6-3.5 3.5-3.5 3.5 1.6 3.5 3.5-1.6 3.5-3.5 3.5zm22.5-16.4c-1.9 0-3.5-1.6-3.5-3.5s1.6-3.5 3.5-3.5 3.5 1.6 3.5 3.5-1.6 3.5-3.5 3.5zM101.5 85c1.9 0 3.5 1.6 3.5 3.5s-1.6 3.5-3.5 3.5-3.5-1.6-3.5-3.5 1.6-3.5 3.5-3.5zm18.6-15.8c-1.9 0-3.5-1.6-3.5-3.5s1.6-3.5 3.5-3.5 3.5 1.6 3.5 3.5-1.6 3.5-3.5 3.5z"/></svg>
