<svg xmlns="http://www.w3.org/2000/svg" viewBox="0 0 128 128"><circle cx="64" cy="64" r="56" fill="#20232a"/><path fill="#61DAFB" d="M64 76.8c7.1 0 12.8-5.7 12.8-12.8S71.1 51.2 64 51.2 51.2 56.9 51.2 64 56.9 76.8 64 76.8z"/><path fill="#61DAFB" d="M64 42.6c17.8 0 33.8 2.8 44.8 7.3-1.6-5.5-7.6-9.2-17-11.6C82.6 36 73.6 34.4 64 34.4s-18.6 1.6-27.8 3.9c-9.4 2.4-15.4 6.1-17 11.6 11-4.5 27-7.3 44.8-7.3z" opacity=".8"/><ellipse cx="64" cy="64" fill="none" stroke="#61DAFB" stroke-width="5" rx="50" ry="20"/><ellipse cx="64" cy="64" fill="none" stroke="#61DAFB" stroke-width="5" rx="50" ry="20" transform="rotate(60 64 64)"/><ellipse cx="64" cy="64" fill="none" stroke="#61DAFB" stroke-width="5" rx="50" ry="20" transform="rotate(120 64 64)"/></svg>
