<svg xmlns="http://www.w3.org/2000/svg" viewBox="0 0 128 128"><path fill="#A41E11" d="M64 6C32 6 6 14.5 6 25v78c0 10.5 26 19 58 19s58-8.5 58-19V25C122 14.5 96 6 64 6zm0 10c27.6 0 50 6.7 50 15S91.6 46 64 46 14 39.3 14 31s22.4-15 50-15z"/><ellipse cx="64" cy="31" rx="50" ry="15" fill="#D82C20"/><path fill="#A41E11" d="M14 46v20c0 8.3 22.4 15 50 15s50-6.7 50-15V46c0 8.3-22.4 15-50 15S14 54.3 14 46z" opacity=".7"/><path fill="#A41E11" d="M14 66v20c0 8.3 22.4 15 50 15s50-6.7 50-15V66c0 8.3-22.4 15-50 15S14 74.3 14 66z" opacity=".5"/><path fill="#A41E11" d="M14 86v17c0 8.3 22.4 15 50 15s50-6.7 50-15V86c0 8.3-22.4 15-50 15S14 94.3 14 86z" opacity=".3"/></svg>
