<svg xmlns="http://www.w3.org/2000/svg" viewBox="0 0 128 128"><path fill="#77bc1f" d="M66.3 4.6C40 6.5 19.6 28.2 19.6 54.2c0 10.1 3.2 19.5 8.5 27.2l30.4-30.3c1-1 2.5-1 3.5 0l30.3 30.3c5.4-7.7 8.5-17.1 8.5-27.2C100.8 26.2 86 3.5 66.3 4.6zm-5.7 31.8c-4.3 0-7.8-3.5-7.8-7.8s3.5-7.8 7.8-7.8 7.8 3.5 7.8 7.8-3.5 7.8-7.8 7.8z"/><path fill="#77bc1f" d="M28.9 83.1l-4.2 4.2c9.4 13.4 25 22.2 42.7 22.2 17.6 0 33.2-8.7 42.6-22.1l-4.2-4.2c-8.7 12-22.9 19.9-38.4 19.9-15.6 0-29.8-7.8-38.5-20z"/><path fill="#77bc1f" d="M64.2 113.9c-15.1 0-28.8-6.1-38.7-16l-4.2 4.2c11.2 11.2 26.6 18.1 43.7 18.1 16.2 0 30.8-6.2 41.8-16.3l-4.2-4.2c-10.1 9.2-23.5 14.2-38.4 14.2z"/></svg>
