<svg xmlns="http://www.w3.org/2000/svg" viewBox="0 0 128 128"><path fill="#77bc1f" d="M113.4 22.3L69.7 2.1c-3.6-1.6-7.7-1.6-11.3 0L14.6 22.3c-4.5 2-7.4 6.5-7.4 11.4v52.7c0 4.9 2.9 9.4 7.4 11.4l43.7 20.2c3.6 1.6 7.7 1.6 11.3 0l43.7-20.2c4.5-2 7.4-6.5 7.4-11.4V33.7c.1-4.9-2.8-9.3-7.3-11.4zM64 97.2c-18.3 0-33.2-14.9-33.2-33.2S45.7 30.8 64 30.8 97.2 45.7 97.2 64 82.3 97.2 64 97.2z"/><path fill="#fff" d="M88.7 53.5H72.2V37c0-1-.8-1.8-1.8-1.8h-12c-1 0-1.8.8-1.8 1.8v16.5H40.2c-1 0-1.8.8-1.8 1.8v12c0 1 .8 1.8 1.8 1.8h16.5v16.5c0 1 .8 1.8 1.8 1.8h12c1 0 1.8-.8 1.8-1.8V69h16.5c1 0 1.8-.8 1.8-1.8v-12c-.1-.9-.9-1.7-1.9-1.7z"/></svg>
