<svg xmlns="http://www.w3.org/2000/svg" viewBox="0 0 128 128"><path fill="#3178C6" d="M2 63.91v62.5h125v-125H2zm100.73-5.01v11.01H80.9v52.41H67.19V69.91H45.36V58.9z"/><path fill="#fff" d="M45.36 58.9v11.01H67.19v52.41H80.9V69.91h21.83V58.9z"/><path fill="#3178C6" d="M95.54 75.83c0-3.55 2.04-6.44 8.04-8.17 3.6-1.03 5.21-1.65 5.21-3.37 0-1.41-1.2-2.34-3.42-2.34-2.88 0-4.75 1.55-6.24 4.07l-5.52-3.37c2.39-4.32 6.11-6.78 11.97-6.78 6.5 0 10.67 3.42 10.67 8.55 0 5.64-4.2 7.51-9.25 9.13-3.08 1-5.14 1.65-5.14 3.37 0 1.27 1.1 2.21 3.28 2.21 2.81 0 5.14-1.55 6.57-3.69l5.38 3.42c-2.67 4.2-6.57 6.71-12.17 6.71-6.84 0-10.38-3.83-10.38-9.74z"/></svg>
